<?xml version="1.0" standalone="no"?>
<!DOCTYPE svg PUBLIC "-//W3C//DTD SVG 20010904//EN"
 "http://www.w3.org/TR/2001/REC-SVG-20010904/DTD/svg10.dtd">
<svg version="1.0" xmlns="http://www.w3.org/2000/svg"
 width="1536.000000pt" height="1536.000000pt" viewBox="0 0 1536.000000 1536.000000"
 preserveAspectRatio="xMidYMid meet">
<metadata>
Created by potrace 1.10, written by Peter Selinger 2001-2011
</metadata>
<g transform="translate(0.000000,1536.000000) scale(0.100000,-0.100000)"
fill="#ffffff" stroke="none">
<path d="M9580 15345 c0 -9 -8 -18 -17 -22 -30 -10 -84 -66 -100 -103 -9 -21
-19 -88 -24 -172 -8 -143 -29 -297 -53 -408 -38 -171 -44 -197 -54 -220 -6
-14 -20 -56 -31 -94 -158 -507 -502 -914 -916 -1081 -49 -20 -99 -40 -110 -44
-21 -9 -97 -31 -173 -51 -86 -22 -230 -41 -367 -46 -172 -8 -226 -28 -278
-102 -30 -44 -32 -53 -32 -128 0 -74 2 -84 30 -120 60 -80 110 -103 222 -104
172 0 488 -54 618 -106 499 -198 820 -557 1004 -1124 88 -273 123 -453 140
-722 9 -145 23 -188 78 -240 101 -96 272 -70 342 53 26 45 29 63 35 177 32
562 219 1086 506 1412 162 183 288 280 500 383 206 100 426 151 705 164 98 4
142 10 178 26 170 71 179 313 14 399 -35 18 -67 23 -187 29 -481 24 -861 183
-1146 481 -83 87 -202 245 -250 334 -6 11 -27 50 -46 85 -54 98 -125 285 -173
454 -57 202 -88 389 -101 610 -7 139 -33 200 -99 242 -24 15 -44 34 -45 41 0
8 -24 12 -85 12 -70 0 -85 -3 -85 -15z m135 -1452 c16 -38 31 -72 35 -78 4 -5
24 -41 45 -80 76 -141 176 -282 270 -383 27 -30 53 -59 57 -66 4 -7 53 -54
110 -104 103 -91 241 -193 358 -265 72 -43 71 -48 -18 -98 -31 -17 -97 -61
-147 -96 -308 -220 -559 -526 -711 -868 -17 -38 -38 -71 -45 -72 -9 -2 -37 45
-77 128 -55 114 -185 329 -224 371 -7 7 -39 45 -71 85 -136 167 -401 388 -574
477 -18 9 -33 22 -33 28 0 12 24 33 55 49 75 38 220 140 310 218 227 198 407
433 536 697 54 112 73 143 83 135 7 -6 26 -41 41 -78z"/>
<path d="M6222 14661 c-29 -10 -64 -29 -79 -42 -101 -93 -377 -379 -390 -404
-9 -16 -18 -56 -20 -90 -4 -52 -1 -67 24 -115 41 -78 103 -115 192 -115 44 0
78 6 102 18 34 17 401 376 433 422 7 11 19 43 25 72 26 109 -42 225 -152 258
-63 19 -70 19 -135 -4z"/>
<path d="M4880 14663 c-43 -9 -91 -47 -130 -103 -35 -49 -36 -167 -3 -220 21
-35 368 -386 409 -414 41 -29 107 -39 169 -26 97 20 175 117 175 217 0 80 -24
114 -218 308 -103 103 -204 199 -224 212 -37 25 -123 38 -178 26z"/>
<path d="M5240 13663 c-69 -23 -111 -57 -273 -218 -97 -97 -189 -192 -203
-210 -70 -93 -64 -203 16 -285 81 -83 187 -97 280 -36 57 38 400 388 423 431
42 82 21 190 -50 257 -53 51 -142 79 -193 61z"/>
<path d="M5900 13661 c-139 -43 -209 -184 -154 -310 20 -45 370 -405 431 -442
46 -29 132 -36 185 -15 48 18 95 56 123 101 29 45 27 167 -2 215 -12 19 -109
123 -217 230 -162 162 -203 198 -243 212 -52 18 -83 21 -123 9z"/>
<path d="M3492 12624 c-53 -27 -92 -67 -111 -116 -6 -15 -15 -87 -21 -160 -24
-285 -75 -479 -186 -701 -121 -242 -285 -400 -514 -494 -101 -42 -196 -61
-342 -72 -68 -5 -139 -15 -159 -23 -167 -71 -189 -295 -39 -394 35 -23 61 -29
207 -45 155 -17 247 -35 298 -58 11 -5 40 -17 65 -27 111 -45 250 -149 332
-247 194 -233 308 -549 338 -936 14 -183 37 -228 147 -285 91 -46 232 7 280
106 16 32 25 86 37 215 16 168 21 204 54 328 82 316 233 568 430 713 67 50
198 122 224 122 7 0 22 7 32 15 11 8 31 15 44 15 13 0 33 5 44 11 12 6 99 19
195 29 154 15 177 20 213 44 119 78 135 257 33 347 -55 48 -97 61 -231 70
-146 11 -241 30 -342 72 -259 106 -440 299 -563 600 -86 210 -111 320 -141
620 -12 125 -16 143 -42 180 -18 25 -50 52 -83 69 -70 37 -129 37 -199 2z
m127 -1217 c14 -37 89 -155 139 -222 65 -84 219 -236 286 -281 56 -37 67 -55
44 -73 -7 -6 -48 -38 -90 -71 -130 -103 -269 -266 -353 -418 -22 -39 -47 -72
-55 -72 -8 0 -33 33 -55 72 -87 156 -222 314 -366 429 -49 39 -89 75 -89 80 0
9 1 10 85 76 77 60 197 181 256 258 51 66 126 185 140 222 5 14 17 23 29 23
12 0 24 -9 29 -23z"/>
<path d="M7170 11600 c-192 -25 -423 -142 -556 -282 -168 -176 -234 -352 -234
-624 0 -102 30 -370 45 -394 11 -19 45 -272 45 -343 0 -150 -47 -377 -107
-522 -27 -63 -78 -170 -93 -195 -5 -8 -31 -51 -57 -95 -125 -212 -423 -547
-663 -746 -41 -34 -88 -73 -105 -88 -127 -113 -515 -388 -730 -517 -165 -99
-332 -172 -525 -226 -30 -9 -80 -23 -111 -32 -31 -9 -67 -16 -80 -16 -13 0
-58 -7 -100 -16 -80 -18 -129 -13 -129 11 0 14 -12 44 -49 125 -48 106 -157
243 -250 314 -119 92 -227 142 -379 176 -87 19 -124 20 -742 20 -694 0 -702 0
-853 -51 -252 -84 -465 -293 -551 -539 -9 -25 -25 -85 -36 -135 -20 -88 -20
-129 -20 -2425 0 -2289 0 -2338 20 -2425 42 -193 110 -321 244 -460 121 -125
268 -204 460 -246 83 -18 132 -19 743 -19 l654 0 102 25 c302 75 511 256 640
555 8 19 17 44 19 55 3 17 12 20 73 23 78 3 155 -12 320 -65 135 -43 201 -74
385 -180 170 -97 390 -208 473 -239 133 -48 326 -99 492 -128 266 -47 190 -46
2508 -46 2409 0 2235 -5 2410 62 116 44 203 98 295 183 120 112 205 251 254
415 24 82 35 288 19 386 -14 90 -55 212 -92 276 -44 74 -41 80 54 126 228 111
396 313 470 567 17 57 21 99 21 230 1 186 -18 275 -85 405 -21 42 -39 82 -39
90 0 9 37 34 84 58 239 122 402 321 472 577 28 103 26 361 -3 460 -25 87 -69
183 -115 255 -45 69 -156 185 -230 240 -34 25 -55 47 -51 54 3 6 21 31 38 56
102 141 165 339 165 515 0 90 -31 243 -67 333 -76 191 -220 352 -403 451 -92
49 -139 66 -255 91 -86 19 -137 20 -1541 20 -909 0 -1455 4 -1459 10 -3 5 30
82 74 172 43 90 107 231 141 313 34 83 67 161 73 175 45 105 139 390 181 550
9 36 23 88 31 115 7 28 21 86 30 130 9 44 21 99 26 122 70 325 71 850 3 1128
-28 114 -65 235 -90 292 -8 17 -14 34 -14 38 0 21 -102 215 -159 300 -79 121
-261 307 -371 381 -131 88 -297 155 -430 174 -74 11 -209 11 -290 0z m314
-471 c116 -44 195 -98 291 -200 142 -150 222 -303 298 -569 38 -135 50 -250
50 -480 -1 -216 -20 -421 -52 -550 -5 -19 -17 -71 -26 -115 -19 -87 -27 -117
-75 -275 -76 -254 -154 -459 -278 -735 -48 -107 -206 -413 -260 -505 -74 -125
-92 -169 -92 -225 0 -32 7 -72 15 -90 22 -45 73 -95 120 -116 38 -18 114 -19
1706 -19 1838 0 1705 5 1832 -63 131 -69 227 -233 227 -387 0 -144 -84 -298
-207 -376 -111 -72 -56 -68 -898 -74 l-760 -5 -46 -27 c-25 -15 -59 -46 -75
-70 -26 -39 -29 -51 -29 -125 0 -74 3 -85 30 -124 19 -27 50 -54 84 -71 l53
-28 837 0 c780 0 841 -1 902 -18 85 -24 143 -58 205 -121 93 -96 130 -203 121
-349 -10 -169 -121 -318 -285 -384 l-57 -23 -870 -5 -870 -5 -46 -27 c-69 -41
-103 -96 -107 -178 -5 -77 11 -122 61 -171 67 -67 26 -63 737 -69 643 -5 645
-5 702 -28 137 -55 249 -183 278 -315 33 -156 -8 -310 -113 -417 -65 -65 -116
-95 -204 -120 -64 -19 -103 -20 -681 -20 -550 0 -616 -2 -645 -16 -103 -54
-142 -118 -135 -224 7 -96 46 -150 136 -191 41 -18 69 -19 436 -19 366 0 395
-1 449 -20 80 -28 132 -59 184 -111 100 -97 138 -196 130 -339 -5 -113 -32
-187 -92 -259 -64 -77 -130 -120 -230 -152 -58 -18 -126 -19 -2210 -19 -2055
0 -2156 1 -2295 19 -80 11 -197 31 -260 45 -116 26 -311 85 -346 105 -10 5
-46 23 -79 39 -33 16 -87 43 -120 62 -33 18 -80 44 -105 57 -25 14 -70 40
-101 59 -31 19 -59 34 -62 34 -4 0 -28 13 -54 28 -165 97 -546 212 -705 212
-29 0 -60 5 -68 10 -13 8 -15 245 -18 2020 -1 1381 1 2017 8 2031 7 13 21 19
43 19 100 0 423 76 621 146 76 27 235 93 251 104 6 4 55 31 110 60 177 93 602
384 825 564 237 192 503 444 646 612 401 469 603 945 604 1420 0 131 -10 210
-65 519 -61 345 -11 510 190 620 61 33 136 60 190 69 58 8 197 -5 249 -25z
m-4436 -3453 c153 -50 265 -167 302 -317 7 -31 10 -713 8 -2384 l-3 -2340 -25
-58 c-39 -91 -119 -177 -210 -225 -14 -8 -52 -22 -85 -33 -56 -18 -99 -19
-681 -19 -542 0 -627 2 -675 16 -168 50 -274 156 -323 323 -14 49 -16 279 -16
2361 0 2092 1 2311 16 2361 49 165 149 268 313 320 51 16 110 18 681 18 l626
1 72 -24z"/>
<path d="M11408 10616 c-65 -17 -111 -56 -142 -118 l-26 -52 0 -272 0 -272 28
-53 c18 -36 43 -64 72 -84 41 -27 53 -30 125 -30 68 0 85 4 115 24 46 32 67
57 91 109 17 40 19 68 19 308 0 263 0 266 -25 319 -29 61 -77 101 -143 121
-53 16 -53 16 -114 0z"/>
<path d="M10513 9716 c-29 -7 -68 -25 -87 -39 -44 -34 -86 -118 -86 -174 0
-103 79 -201 176 -219 52 -10 443 -11 522 -2 91 11 144 51 183 136 27 61 24
116 -9 182 -32 63 -82 102 -155 119 -67 15 -476 13 -544 -3z"/>
<path d="M11865 9716 c-83 -24 -135 -71 -164 -149 -43 -114 42 -260 163 -283
51 -9 449 -11 524 -2 91 11 144 51 183 136 23 53 24 107 3 158 -34 80 -80 120
-169 143 -55 15 -488 12 -540 -3z"/>
<path d="M11383 9259 c-42 -12 -100 -70 -124 -123 -17 -37 -19 -69 -19 -311 0
-246 2 -274 20 -310 24 -50 35 -63 84 -100 36 -28 46 -30 120 -30 74 0 85 3
126 30 30 21 53 48 72 85 l28 55 0 270 0 270 -28 55 c-40 79 -90 112 -179 116
-37 2 -83 -1 -100 -7z"/>
</g>
</svg>
